HIERARCHY
ROOT Hips
{
	OFFSET -14.64140 90.27770 -84.91600
	CHANNELS 6 Xposition Yposition Zposition Zrotation Xrotation Yrotation
	JOINT Spine
	{
		OFFSET 0.00000 13.20850 -1.60436
		CHANNELS 3 Zrotation Xrotation Yrotation
		JOINT Spine1
		{
			OFFSET 0.00000 8.61716 0.00000
			CHANNELS 3 Zrotation Xrotation Yrotation
			JOINT Spine2
			{
				OFFSET 0.00000 8.61717 0.00000
				CHANNELS 3 Zrotation Xrotation Yrotation
				JOINT Spine3
				{
					OFFSET 0.00000 8.61717 0.00000
					CHANNELS 3 Zrotation Xrotation Yrotation
					JOINT Neck
					{
						OFFSET 0.00000 11.07920 1.10792
						CHANNELS 3 Zrotation Xrotation Yrotation
						JOINT Neck1
						{
							OFFSET 0.00000 7.08032 0.00000
							CHANNELS 3 Zrotation Xrotation Yrotation
							JOINT Head
							{
								OFFSET 0.00000 7.08031 0.00000
								CHANNELS 3 Zrotation Xrotation Yrotation
								End site
								{
									OFFSET 0.00000 0.00000 0.00000
								}
							}
						}
					}
					JOINT RightShoulder
					{
						OFFSET -0.01000 7.91373 5.19711
						CHANNELS 3 Zrotation Xrotation Yrotation
						JOINT RightArm
						{
							OFFSET -18.41580 0.00000 0.00000
							CHANNELS 3 Zrotation Xrotation Yrotation
							JOINT RightForeArm
							{
								OFFSET -29.11090 0.00000 0.00000
								CHANNELS 3 Zrotation Xrotation Yrotation
								JOINT RightHand
								{
									OFFSET -24.65040 0.00000 0.00000
									CHANNELS 3 Zrotation Xrotation Yrotation
									JOINT RightHandThumb1
									{
										OFFSET -5.35114 -0.85590 3.97906
										CHANNELS 3 Zrotation Xrotation Yrotation
										JOINT RightHandThumb2
										{
											OFFSET -4.52789 0.00000 0.00000
											CHANNELS 3 Zrotation Xrotation Yrotation
											JOINT RightHandThumb3
											{
												OFFSET -2.46976 0.00000 0.00000
												CHANNELS 3 Zrotation Xrotation Yrotation
												End site
												{
													OFFSET 0.00000 0.00000 0.00000
												}
											}
										}
									}
									JOINT RightHandIndex1
									{
										OFFSET -14.26970 0.00000 2.88139
										CHANNELS 3 Zrotation Xrotation Yrotation
										JOINT RightHandIndex2
										{
											OFFSET -5.48836 0.00000 0.00000
											CHANNELS 3 Zrotation Xrotation Yrotation
											JOINT RightHandIndex3
											{
												OFFSET -3.01859 0.00000 0.00000
												CHANNELS 3 Zrotation Xrotation Yrotation
												End site
												{
													OFFSET 0.00000 0.00000 0.00000
												}
											}
										}
									}
									JOINT RightHandMiddle1
									{
										OFFSET -14.26970 0.00000 -0.09147
										CHANNELS 3 Zrotation Xrotation Yrotation
										JOINT RightHandMiddle2
										{
											OFFSET -6.17441 0.00000 0.00000
											CHANNELS 3 Zrotation Xrotation Yrotation
											JOINT RightHandMiddle3
											{
												OFFSET -3.56743 0.00000 0.00000
												CHANNELS 3 Zrotation Xrotation Yrotation
												End site
												{
													OFFSET 0.00000 0.00000 0.00000
												}
											}
										}
									}
									JOINT RightHandRing1
									{
										OFFSET -12.69180 0.00000 -3.06433
										CHANNELS 3 Zrotation Xrotation Yrotation
										JOINT RightHandRing2
										{
											OFFSET -5.62556 0.00000 0.00000
											CHANNELS 3 Zrotation Xrotation Yrotation
											JOINT RightHandRing3
											{
												OFFSET -3.56744 0.00000 0.00000
												CHANNELS 3 Zrotation Xrotation Yrotation
												End site
												{
													OFFSET 0.00000 0.00000 0.00000
												}
											}
										}
									}
									JOINT RightHandPinky1
									{
										OFFSET -11.11390 0.00000 -6.03719
										CHANNELS 3 Zrotation Xrotation Yrotation
										JOINT RightHandPinky2
										{
											OFFSET -4.52789 0.00000 0.00000
											CHANNELS 3 Zrotation Xrotation Yrotation
											JOINT RightHandPinky3
											{
												OFFSET -2.46976 0.00000 0.00000
												CHANNELS 3 Zrotation Xrotation Yrotation
												End site
												{
													OFFSET 0.00000 0.00000 0.00000
												}
											}
										}
									}
								}
							}
						}
					}
					JOINT LeftShoulder
					{
						OFFSET 0.01000 7.91373 5.19711
						CHANNELS 3 Zrotation Xrotation Yrotation
						JOINT LeftArm
						{
							OFFSET 18.41580 0.00000 0.00000
							CHANNELS 3 Zrotation Xrotation Yrotation
							JOINT LeftForeArm
							{
								OFFSET 29.11090 0.00000 0.00000
								CHANNELS 3 Zrotation Xrotation Yrotation
								JOINT LeftHand
								{
									OFFSET 24.65040 0.00000 0.00000
									CHANNELS 3 Zrotation Xrotation Yrotation
									JOINT LeftHandThumb1
									{
										OFFSET 5.35114 -0.85590 3.97906
										CHANNELS 3 Zrotation Xrotation Yrotation
										JOINT LeftHandThumb2
										{
											OFFSET 4.52789 0.00000 0.00000
											CHANNELS 3 Zrotation Xrotation Yrotation
											JOINT LeftHandThumb3
											{
												OFFSET 2.46977 0.00000 0.00000
												CHANNELS 3 Zrotation Xrotation Yrotation
												End site
												{
													OFFSET 0.00000 0.00000 0.00000
												}
											}
										}
									}
									JOINT LeftHandIndex1
									{
										OFFSET 14.26970 0.00000 2.88139
										CHANNELS 3 Zrotation Xrotation Yrotation
										JOINT LeftHandIndex2
										{
											OFFSET 5.48836 0.00000 0.00000
											CHANNELS 3 Zrotation Xrotation Yrotation
											JOINT LeftHandIndex3
											{
												OFFSET 3.01859 0.00000 0.00000
												CHANNELS 3 Zrotation Xrotation Yrotation
												End site
												{
													OFFSET 0.00000 0.00000 0.00000
												}
											}
										}
									}
									JOINT LeftHandMiddle1
									{
										OFFSET 14.26970 0.00000 -0.09147
										CHANNELS 3 Zrotation Xrotation Yrotation
										JOINT LeftHandMiddle2
										{
											OFFSET 6.17440 0.00000 0.00000
											CHANNELS 3 Zrotation Xrotation Yrotation
											JOINT LeftHandMiddle3
											{
												OFFSET 3.56744 0.00000 0.00000
												CHANNELS 3 Zrotation Xrotation Yrotation
												End site
												{
													OFFSET 0.00000 0.00000 0.00000
												}
											}
										}
									}
									JOINT LeftHandRing1
									{
										OFFSET 12.69180 0.00000 -3.06433
										CHANNELS 3 Zrotation Xrotation Yrotation
										JOINT LeftHandRing2
										{
											OFFSET 5.62556 0.00000 0.00000
											CHANNELS 3 Zrotation Xrotation Yrotation
											JOINT LeftHandRing3
											{
												OFFSET 3.56744 0.00000 0.00000
												CHANNELS 3 Zrotation Xrotation Yrotation
												End site
												{
													OFFSET 0.00000 0.00000 0.00000
												}
											}
										}
									}
									JOINT LeftHandPinky1
									{
										OFFSET 11.11390 0.00000 -6.03719
										CHANNELS 3 Zrotation Xrotation Yrotation
										JOINT LeftHandPinky2
										{
											OFFSET 4.52789 0.00000 0.00000
											CHANNELS 3 Zrotation Xrotation Yrotation
											JOINT LeftHandPinky3
											{
												OFFSET 2.46976 0.00000 0.00000
												CHANNELS 3 Zrotation Xrotation Yrotation
												End site
												{
													OFFSET 0.00000 0.00000 0.00000
												}
											}
										}
									}
								}
							}
						}
					}
					JOINT pCube4
					{
						OFFSET 0.00000 10.91090 1.10792
						CHANNELS 3 Zrotation Xrotation Yrotation
						End site
						{
							OFFSET 0.00000 0.00000 0.00000
						}
					}
				}
			}
		}
	}
	JOINT RightUpLeg
	{
		OFFSET -9.98441 0.00000 0.00000
		CHANNELS 3 Zrotation Xrotation Yrotation
		JOINT RightLeg
		{
			OFFSET 0.00000 -42.11790 0.00000
			CHANNELS 3 Zrotation Xrotation Yrotation
			JOINT RightFoot
			{
				OFFSET 0.00000 -45.00020 -0.00001
				CHANNELS 3 Zrotation Xrotation Yrotation
				JOINT RightForeFoot
				{
					OFFSET 0.00000 -3.74820 0.00000
					CHANNELS 3 Zrotation Xrotation Yrotation
					JOINT RightToeBase
					{
						OFFSET 0.00000 0.06325 14.43120
						CHANNELS 3 Zrotation Xrotation Yrotation
						End site
						{
							OFFSET 0.00000 0.00000 0.00000
						}
					}
				}
			}
		}
	}
	JOINT LeftUpLeg
	{
		OFFSET 9.98441 0.00000 0.00000
		CHANNELS 3 Zrotation Xrotation Yrotation
		JOINT LeftLeg
		{
			OFFSET 0.00000 -42.11800 0.00000
			CHANNELS 3 Zrotation Xrotation Yrotation
			JOINT LeftFoot
			{
				OFFSET 0.00000 -45.00070 0.00000
				CHANNELS 3 Zrotation Xrotation Yrotation
				JOINT LeftForeFoot
				{
					OFFSET 0.00000 -3.74824 0.00000
					CHANNELS 3 Zrotation Xrotation Yrotation
					JOINT LeftToeBase
					{
						OFFSET 0.00000 0.06325 14.43110
						CHANNELS 3 Zrotation Xrotation Yrotation
						End site
						{
							OFFSET 0.00000 0.00000 0.00000
						}
					}
				}
			}
		}
	}
}
MOTION
Frames: 4
Frame Time: 0.050000
-0.03201972487522139 0.01227450861540582 0.007253554051836961 -0.03157930351124864 -0.039921269190468456 0.00794913679126729 0.2584677033579303 3.607867113974243 -1.3165414355240717 -1.0327626372157486 3.5433499491128235 0.42351759421455637 -1.0589032572229415 -1.0181570040019527 0.8612104182958492 -1.3626183476662879 -0.34922806945829626 -0.4260276081832964 -0.5252974593257748 11.521020912595482 1.337667510412895 0.006309923705182189 -0.44020282541361794 1.4766519061276648 -0.24111825253296282 -15.67784552255911 0.11177302346442916 -9.005410395752842 3.343409332207431 -14.545173065009914 62.80023410510569 -19.599884585897236 27.52313847689866 20.297673358508607 -4.68388407425294 80.8978776411671 16.370634885805607 -0.5015256641492494 -4.690786838527047 4.533798129793498 -0.16661009040963579 -1.636611271208047 0.018373335050630896 -0.017166586560336445 -56.23215269869105 -0.011502244501859963 -0.0008083664424737917 -56.27178360305264 -38.783812711154006 0.03140152203375492 0.01972340360478154 -0.017822704477921305 0.041074917346601916 0.006892617256005056 0.01864605562112493 0.01019583408628908 0.005440261499903452 -36.732500300101016 0.034995765698023415 -0.013429223266439893 0.025920165217585046 0.010741877048432338 0.004996532214467774 -0.043950429323914054 0.0381638148261813 -0.020381545477510234 -19.732778001702123 0.026526803536865647 0.01908532170620156 -0.046576763592469705 -0.029238857883226468 -0.0034210046633605024 0.004610038415629458 -0.018594034886053795 -0.027650355634019602 24.00802711251174 0.016867313722127505 -0.025843667490612898 28.904932411127003 0.030538904992649975 -0.002683044861306541 28.84183891808436 0.022655556708512953 0.0007167743112240103 7.470644781758158 1.846186171949534 13.14442999521925 -62.27934219616381 16.387209065585978 -18.295114193490235 7.9721941981076325 -8.392806334283256 -50.54346611795506 -17.640443104935006 -0.5740388269105239 3.53954908984562 -0.44245839128798015 0.03771774525659219 -8.15081608216667 -0.020007911802046034 0.024374320881590115 44.58044255226448 -0.02417683108557912 -0.04544582357904417 44.57480059576876 12.45802946698238 -0.02446890261425509 0.0301309923678597 0.021532152560442906 0.032514866498687824 -0.03723587097214034 0.04428511115681399 0.010917200134142654 -0.02726765546447793 11.112524467847603 -0.04042399860173593 0.0053386668884418545 0.022448088303259988 0.022265211037787547 0.02810934523143047 -0.02525229887301151 -0.03353851302500436 -0.012607072903594712 4.744101125947178 -0.011045800107968004 0.027135771892677164 0.03172459536100461 0.0027789246151742946 0.019140014000884317 0.0161747297616184 0.019783584393590386 -0.03261328166556634 -5.636377399552533 -0.04113019825473114 -0.006120439588141871 -6.705677418087109 0.006151270535496884 0.016646968937786284 -6.693813588720778 0.03393113468480569 0.04074067065916304 -0.003346569979568081 0.03261786106385126 -0.014828822881478215 8.01651668342072 3.4563328209254363 -19.187145205621242 -0.020997844544817214 10.412428076939701 0.013995695929067648 -5.624359162187967 -15.616234085628946 3.169304107493258 0.027810714836759422 -0.008623591892359372 0.030505917168502567 -0.010378602377669265 4.706821432895806 0.04302760937115381 12.45919625930284 -8.209385068567114 6.8495707194505675 0.04361854112920453 46.35665591285284 0.015547786253042255 -4.33454366922636 -14.734897989139027 -3.826107871469847 -0.000647705488465654 0.027029713002041707 -0.01591578669348096 0.0032488306777763297 -10.733215684010203 0.00285019160371149 
-0.015683604211731973 -0.03448046262617457 -0.011285127210913237 -0.011052655010444112 0.029765496848652602 0.006292507631254456 0.4559859329571184 3.532200361310152 -1.4578749570681362 -0.989547141616953 3.505151828038648 0.4726435272014206 -1.053029940735235 -0.9829323226249329 0.8437679971301949 -1.223886340582879 -0.3546837069114559 -0.44291035172139537 -0.2505837537071128 11.334105389794509 0.5286726508133013 0.003892437048630848 -0.47524653493953173 -0.1104020333395824 0.10772567915986384 -15.90068824033582 0.04299946217727589 -9.355488118309383 3.425396484491101 -14.913256176007463 63.290399049740444 -21.626239135036176 27.369360983748987 19.32461774102496 -4.02005954789931 80.65496340290677 15.337628902430431 -0.48021214854649674 -4.390002858439277 4.527971462527318 -0.08314732782139492 -1.606710740753336 0.02342130606174686 0.01540109598725681 -56.1912625652427 0.04093657653087685 0.031045648128642113 -56.234891110443115 -38.75169625352136 -0.02130078375848812 -0.007340358052228011 -0.03839099490564614 -0.030124452261363583 -0.02649437921839251 0.00033569221425266716 -0.005871250743845697 -0.02383040990292839 -36.68594195060159 0.02950985949107446 0.0317653998740548 -0.028984756180829116 0.003417861143670678 0.001964914271689991 -0.023099883450645307 0.020227569367133557 0.003504855515870354 -19.754336014353616 0.049509716390987196 -0.012121598610360268 -0.009251975383006768 -0.031759173365769784 0.04030102580443281 -0.019424597713162114 0.04504284556993564 -0.04072192544741506 24.089377112391322 0.026741310618526207 0.028183913088462017 28.89037456680533 0.04565752745973626 -0.03358220791277142 28.86409228164555 0.021494505098623988 0.010122626776642664 7.1536380928928285 1.8685708168229551 13.07562844219693 -62.87325326922344 16.854524533060133 -17.276215527469603 6.854011142949358 -7.590915360927346 -50.478289913098415 -17.304296681309708 -1.1129139603365639 3.771804522892556 -0.46495308466692287 0.08251582265088103 -8.148780502242191 0.03189848604951143 0.021331886012193737 44.60307041530515 -0.03954739067679957 -0.04396857970062952 44.6020258837361 12.452635197397267 -0.016595523778952504 -0.028033590019331187 -0.027943338067465524 0.03065098679835589 -0.022775934477136904 0.004315792042101543 -0.04425482207281978 0.018342866441453397 11.102326113451518 -0.026672844903877127 -0.013841448443983767 -0.028955614863729665 -0.0061107324840918575 0.025108827403323028 0.030866523768797123 0.0008666837752559399 -0.027511161528621344 4.756736086950836 -0.04691052685137997 -0.0006104811968128163 -0.0025156857307344666 -0.007101711090617119 -0.04135220080326503 -0.039053496888959406 0.019228493244508992 0.037208963940943605 -5.634686373416378 0.008117029557153616 0.005541479244636144 -6.742962906507369 -0.036101332347349434 -0.04482340613848791 -6.7311763308197365 0.02900317375739578 -0.026128790137384304 -0.00998364844385407 -0.0242025863144629 -0.012869336772393228 8.03001828977337 3.5324843071659355 -19.2273452545025 -0.0036009669230490714 10.419047937174822 -0.02841227553255955 -5.616171542644619 -15.656993211156857 3.173076111858238 -0.03427899643195708 0.00566938347336702 -0.04939875145234765 -0.03709691066537161 4.734837538405744 -0.015018004718186298 12.457732105481792 -8.219324146298588 6.885723786118406 0.03169360749492246 46.33911216947794 0.020034060434286616 -4.343120470717942 -14.732284546594185 -3.798586661412691 0.019357398475978647 -0.018400896636762764 -0.03838778988287895 0.003054639863942404 -10.779158711839793 -0.032875743220297855 
0.02030468897827502 0.015015523275153873 -0.003875661394916264 0.02701342014774807 -0.03623060041371662 -0.02223113275633534 0.5686305180597604 3.763985318124868 -1.4355916208346902 -1.0487683991273193 3.5261576462827646 0.4510728875252493 -1.0333541263448258 -0.8901458715230508 0.5516939537155696 -0.9678600009010104 -0.376566136392805 -0.45834585504214054 -0.1376096788212061 11.065709460555487 0.05661035032383976 0.09456041541643549 -0.7134043609243625 -1.0718732152209482 0.2470237008018833 -16.24244321188436 -0.12183081781323303 -9.124356927052741 3.31563696545504 -15.23065120890475 64.37587636486359 -22.384207843235853 25.164693018560158 19.515153435711085 -2.9958703976914034 80.05710057359138 14.542859408271125 -0.5328122055660105 -4.154111675091892 4.508645384708027 -0.15700192542064215 -1.5884676052071616 -0.010203570104470684 -0.003318626760599654 -56.192472725953124 0.021060930655316577 0.03457852579181366 -56.28129391521329 -38.770974723269 0.04126752180711811 -0.019788178447479602 -0.019038156337859574 0.011164373862032357 -0.04802248374552912 -0.007888815520757977 -0.01492178207904359 0.034294932966427646 -36.708470068645504 -0.03892166803621149 0.01635686140210737 0.005402783065335894 0.007218431776275354 0.006299651857797442 -0.0008186418423331534 0.04504069516447077 -0.03148125907140659 -19.76449847760833 -0.020614220275066777 -0.00569489579715873 -0.003062981303940558 -0.007052179430937185 0.011287180462502558 -0.04631009636695365 0.03991716672247309 0.006305721126593153 24.07990568513256 0.002102983712903328 -0.030545399754331397 28.823683847206752 -0.0062513010155045975 -0.014697721710957245 28.874478498566685 -0.013193802760779583 -0.013917221346257943 6.7632550099171675 1.7449945992094535 13.037092282936529 -63.39622240316582 17.769600342646388 -16.296306851188632 5.38451274388536 -6.468862719096685 -51.021452263753865 -16.750038303241634 -1.7290519137764024 3.980118329340355 -0.4611285246762286 0.09305880170644915 -8.077144212493538 -0.007837760633695501 0.03317257628352818 44.53110051018756 -0.00558796198415481 -0.04263236485669918 44.54841329649493 12.454472671116443 0.019784029431765063 -0.03747049331396704 -0.01629943201703863 0.017948697015056705 -0.04087929537530414 -0.02787575433711197 0.047590670455784356 0.0010603823932379425 11.07969888644706 0.041091197745757056 -0.026910106176596237 0.004614132306875197 -0.021437247404609824 -0.026988267747063907 -0.032095245002763395 0.022582444930069372 0.028971352323515828 4.786260571519387 -0.010523181531419854 -0.00566911715293751 -0.015779332065651713 0.04188877403848065 -0.04820495083768848 -0.02293420565802754 -0.04120784744946093 -0.00560650443200779 -5.602918120493612 -0.0145299237915757 8.553524968615898e-05 -6.707528071792923 -0.01223801269219851 0.01754297446296942 -6.6728772164162775 0.046638458738708956 0.019323777298761686 0.022374408638235945 -0.01450519784460308 0.026302072886244622 8.05492284182011 3.4776788430898917 -19.2309709740664 -0.0036262949350065934 10.390877262263217 -0.00025529189943941134 -5.618480517443817 -15.662892708218541 3.216851128232022 -0.0234382880363874 -0.03187141676989306 0.036330382472602056 0.04496080639943915 4.693883164356962 0.009719977671880644 12.436448618617066 -8.235472211268013 6.87223032624318 0.0011997075325569566 46.36551521948757 -0.02761916526766149 -4.323372975862854 -14.79314671006884 -3.807466716062083 0.03129048488518104 0.02815444440374752 -0.027508362521242884 0.016323492277143754 -10.757686696416384 -0.02482212043467848 
0.021234284237275865 -0.03366614877965923 -0.001114498882728674 0.04119814931907769 0.020622775249663106 0.03215477389780463 0.5427595928517267 4.106468570364287 -1.500449843859543 -0.9979448193641742 3.6027793211406323 0.4570537541752568 -1.0415116001057418 -0.7307744189988542 0.3445069043408921 -0.7645863941949876 -0.3144626232674792 -0.47381666517325005 -0.016108061967304736 10.88606151651612 -0.2540696425017661 0.08112453312906598 -0.9769996211433994 -1.5726160532886295 0.30918420009368963 -16.690367588183282 -0.16385539754269307 -8.676119461036555 3.177075304125694 -15.524176481985076 65.6397292351681 -22.731502381261407 22.11487557164077 20.421412366294454 -2.1243080951409756 78.83572843662992 13.80280816870814 -0.4720232486857141 -3.9184133524719518 4.483778336936347 -0.15819495517532425 -1.6122329472272516 0.009988705418864074 0.016915615564270365 -56.19985373155775 -0.027730277340384486 -0.02504688701975602 -56.20349366510421 -38.723058289224845 -1.2154083482222318e-05 0.008433377642845593 0.04290146899938442 0.0050029199885921645 0.03623404744216705 0.0005658604749914852 0.04138066259635665 0.0031407371792584156 -36.69802088886684 -0.005769103777784652 0.014102694825946553 0.011228933210586252 -0.04558454877215077 -0.016128625761219376 -0.007040798116550531 -0.001466184953608069 0.02793430795905743 -19.793358641680914 0.015328628058877134 0.004454569457472621 0.024042289075851556 0.005786016286604127 -0.0070751832230861 0.012184827481290655 -0.0005802637086581029 0.004612886876969299 24.103743240003933 0.035252728597998835 -0.040464639758760926 28.862405048439236 -0.03172516750940231 -0.004845005479501903 28.881965536005005 0.011849239848465034 0.026928690073907854 6.264526491831881 1.6993571712413063 12.941062987246417 -63.78193480107889 18.70807591690737 -15.439437597658374 3.699478667288884 -5.2188613930384955 -52.46079327036077 -15.980613138425626 -2.0518356436981744 4.111607192486649 -0.47993382917700256 0.0686882929900213 -8.137094951604608 0.048237367470005475 0.023275660700414407 44.526740212860325 -0.009708477329058947 -0.026854972482162467 44.59858006063158 12.422075062329059 0.01864714456439361 0.01004133656436103 -0.013172992759975912 0.007149730702675227 -0.0002055063335811195 -0.005471922151794431 -0.01490887544292194 0.03274334480834725 11.099131554321602 -0.04839775000981588 0.04986025680914799 -0.024690332802568247 0.030724204588881532 -0.0275616945374641 0.008754183602069109 -0.02490268870522883 -0.01691681099112247 4.730535859367802 0.036717885903517544 0.014382419549251924 -0.03436683777831631 -0.0015073458599301711 -0.00929106901661417 -0.006554996051165488 -0.04542200399035873 -0.03588567994574318 -5.6414074747975524 0.012341904954547515 -0.04873744601827512 -6.721400294926296 0.025659058568305738 -0.03004037107187251 -6.679422114893718 0.017538594774446054 0.04614879549229034 0.030530585478334867 0.026474573595743386 0.04276135554662181 8.084218223199734 3.5311365205852256 -19.229056703391034 -0.025373063883643326 10.381654094938735 0.027597962048187926 -5.634190220617082 -15.62907687222586 3.196533508961501 0.017435387927084302 -0.0026086347469826557 0.045062908896899505 0.03120870784130713 4.737271074924579 0.03997310582135288 12.458091384766458 -8.229365501249369 6.914295997226024 0.026925533664972134 46.35933315777667 0.01466628953046218 -4.330103787286482 -14.73397662473041 -3.8783612499422064 -0.0015787675027254622 -0.025545558644554003 -0.03421062350405671 -0.03452538864707632 -10.762777194327347 0.0032910146845618682 
